<?xml version="1.0" standalone="no"?><!DOCTYPE svg PUBLIC "-//W3C//DTD SVG 1.1//EN" "http://www.w3.org/Graphics/SVG/1.1/DTD/svg11.dtd"><svg t="1654588079306" class="icon" viewBox="0 0 1024 1024" version="1.1" xmlns="http://www.w3.org/2000/svg" p-id="4773" width="128" height="128" xmlns:xlink="http://www.w3.org/1999/xlink"><defs><style type="text/css">@font-face { font-family: feedback-iconfont; src: url("//at.alicdn.com/t/font_1031158_u69w8yhxdu.woff2?t=1630033759944") format("woff2"), url("//at.alicdn.com/t/font_1031158_u69w8yhxdu.woff?t=1630033759944") format("woff"), url("//at.alicdn.com/t/font_1031158_u69w8yhxdu.ttf?t=1630033759944") format("truetype"); }
</style></defs><path d="M786.8 383.9c0-17.7-14.3-32-32-32H371.2c-17.7 0-32 14.3-32 32s14.3 32 32 32h383.6c17.7 0 32-14.4 32-32zM786.8 576c0-17.7-14.3-32-32-32H371.2c-17.7 0-32 14.3-32 32s14.3 32 32 32h383.6c17.7 0 32-14.4 32-32zM371.2 736.1c-17.7 0-32 14.3-32 32s14.3 32 32 32H563c17.7 0 32-14.3 32-32s-14.3-32-32-32H371.2z" p-id="4774"></path><path d="M627.1 895.2H305.3c-17.6 0-31.9-14.3-31.9-32V287.8c0-17.7 14.3-32 31.9-32h513.9c17.6 0 31.9 14.3 31.9 32V576c0 17.7 14.3 32 31.9 32 17.6 0 31.9-14.3 31.9-32V255.8c0-35.4-28.6-64-63.9-64h-63v-63c0-35.4-28.6-64-63.9-64H146.4c-35.3 0-63.9 28.7-63.9 64v639.4c0 35.4 28.6 64 63.9 64h63.1v63c0 35.4 28.6 64 63.9 64h353.7c17.6 0 31.9-14.3 31.9-32 0.1-17.7-14.2-32-31.9-32zM209.6 255.8v512.4h-31.2c-17.6 0-31.9-14.3-31.9-32V160.8c0-17.7 14.3-32 31.9-32h513.9c17.6 0 31.9 14.3 31.9 32v30.9H273.4c-35.3 0.1-63.8 28.7-63.8 64.1z" p-id="4775"></path><path d="M901.4 895.3h-19c-17.9 0-32.3-14.5-32.3-32.3V749l36.8 36.8c12.5 12.5 32.7 12.5 45.2 0s12.5-32.8 0-45.2l-90.4-90.4c-6.2-6.2-14.2-9.3-22.3-9.3h-0.6c-8.1 0.1-16.1 3.2-22.3 9.3l-90.3 90.3c-12.5 12.5-12.5 32.7 0 45.2s32.8 12.5 45.2 0l34.6-34.6v112.1c0 53 43 96 96 96h20c18.5 0 33.3-15.6 31.9-34.4-1.1-16.8-15.6-29.5-32.5-29.5z" p-id="4776"></path></svg>