<?xml version="1.0" standalone="no"?><!DOCTYPE svg PUBLIC "-//W3C//DTD SVG 1.1//EN" "http://www.w3.org/Graphics/SVG/1.1/DTD/svg11.dtd"><svg t="1654589795729" class="icon" viewBox="0 0 1024 1024" version="1.1" xmlns="http://www.w3.org/2000/svg" p-id="20168" xmlns:xlink="http://www.w3.org/1999/xlink" width="128" height="128"><defs><style type="text/css">@font-face { font-family: feedback-iconfont; src: url("//at.alicdn.com/t/font_1031158_u69w8yhxdu.woff2?t=1630033759944") format("woff2"), url("//at.alicdn.com/t/font_1031158_u69w8yhxdu.woff?t=1630033759944") format("woff"), url("//at.alicdn.com/t/font_1031158_u69w8yhxdu.ttf?t=1630033759944") format("truetype"); }
</style></defs><path d="M219.904 691.029333a141.44 141.44 0 0 0-17.237333 8.192V896l-0.298667 4.352a32 32 0 0 1-63.402667 0L138.666667 896V170.666667c0-6.826667 2.133333-13.354667 6.101333-18.773334l3.754667-4.309333 3.882666-3.413333a113.493333 113.493333 0 0 1 9.173334-6.826667c7.850667-5.205333 19.157333-11.562667 34.56-17.706667 28.757333-11.52 71.424-22.144 131.968-23.466666L341.333333 96c60.501333 0 112.128 17.322667 158.72 35.498667l23.808 9.472c49.450667 19.754667 93.781333 37.205333 144.725334 39.978666l14.08 0.384c60.416 0 98.986667-10.069333 121.429333-19.029333 11.264-4.522667 18.645333-8.832 22.826667-11.605333l4.053333-2.944 3.370667-2.858667a32 32 0 0 1 26.666666-5.290667l4.565334 1.493334a32 32 0 0 1 19.413333 24.746666L885.333333 170.666667v512l-0.426666 5.034666a32 32 0 0 1-5.674667 13.738667l-3.754667 4.309333-3.882666 3.413334a113.664 113.664 0 0 1-9.173334 6.826666 188.245333 188.245333 0 0 1-34.56 17.706667c-28.757333 11.52-71.424 22.144-131.968 23.466667l-13.226666 0.170666-16.213334-0.426666c-58.453333-2.986667-108.586667-21.546667-154.026666-39.637334l-12.288-4.906666c-49.450667-19.754667-93.781333-37.205333-144.725334-39.978667L341.333333 672c-60.373333 0-98.986667 10.069333-121.429333 19.029333z m0-512a141.525333 141.525333 0 0 0-17.237333 8.192v441.898667c28.416-10.453333 68.864-19.626667 124.458666-20.949333L341.333333 608c60.501333 0 112.128 17.322667 158.72 35.498667l23.808 9.472c49.450667 19.754667 93.781333 37.205333 144.725334 39.978666l14.08 0.384 11.776-0.128c53.674667-1.194667 88.704-10.538667 109.653333-18.901333 7.381333-2.986667 13.056-5.802667 17.28-8.192V224.213333c-28.416 10.453333-68.864 19.626667-124.501333 20.949334L682.666667 245.333333c-60.501333 0-112.128-17.322667-158.72-35.498666l-23.808-9.472c-49.450667-19.754667-93.781333-37.205333-144.725334-39.978667L341.333333 160c-60.373333 0-98.986667 10.069333-121.429333 19.029333z" p-id="20169"></path></svg>