<?xml version="1.0" standalone="no"?><!DOCTYPE svg PUBLIC "-//W3C//DTD SVG 1.1//EN" "http://www.w3.org/Graphics/SVG/1.1/DTD/svg11.dtd"><svg t="1655194475796" class="icon" viewBox="0 0 1024 1024" version="1.1" xmlns="http://www.w3.org/2000/svg" p-id="2837" xmlns:xlink="http://www.w3.org/1999/xlink" width="128" height="128"><defs><style type="text/css">@font-face { font-family: feedback-iconfont; src: url("//at.alicdn.com/t/font_1031158_u69w8yhxdu.woff2?t=1630033759944") format("woff2"), url("//at.alicdn.com/t/font_1031158_u69w8yhxdu.woff?t=1630033759944") format("woff"), url("//at.alicdn.com/t/font_1031158_u69w8yhxdu.ttf?t=1630033759944") format("truetype"); }
</style></defs><path d="M840 184v656H184V184h656m56-72H128c-8.8 0-16 7.2-16 16v768c0 8.8 7.2 16 16 16h768c8.8 0 16-7.2 16-16V128c0-8.8-7.2-16-16-16z" p-id="2838"></path><path d="M507.5 423.7h-92.9V752h-95.8V423.7h-92.5c-7.1 0-10.7-8.6-5.7-13.7l135-135c6.2-6.2 16.4-6.2 22.6 0l135 135c5 5 1.5 13.7-5.7 13.7zM803.4 613.3l-135 135c-6.2 6.2-16.4 6.2-22.6 0l-135-135c-5-5-1.5-13.7 5.7-13.7h92.9V272h95.8v327.6h92.5c7.1 0 10.7 8.6 5.7 13.7z" p-id="2839"></path></svg>